<!--Generator: Adobe Illustrator 24.0.0, SVG Export Plug-In--><svg xmlns="http://www.w3.org/2000/svg" width="132.6" height="132.6" xml:space="preserve"><style>.st1{fill:url(#SVGID_2_)}</style><linearGradient id="SVGID_1_" gradientUnits="userSpaceOnUse" x1="0" y1="107.5" x2="132.6008" y2="107.5" gradientTransform="matrix(1 0 0 -1 0 173.8)"><stop offset=".00144028" stop-color="#34c8ff"/><stop offset="1" stop-color="#935cff"/></linearGradient><path d="M107.2 14v45.9H92.7c-2.9-10.2-12.4-17.7-23.5-17.7-13.5 0-24.5 11-24.5 24.5s11 24.5 24.5 24.5c11.2 0 20.6-7.5 23.5-17.7h13.9c-3.2 17.7-18.7 31.3-37.4 31.3-20.9 0-38-17-38-38 0-20.9 17-38 38-38 9.3 0 17.9 3.4 24.5 9V5.9C85.4 2.1 76.1 0 66.3 0 29.7 0 0 29.7 0 66.3s29.7 66.3 66.3 66.3 66.3-29.7 66.3-66.3c.1-21.3-9.9-40.2-25.4-52.3z" fill="url(#SVGID_1_)"/></svg>